<?xml version="1.0" encoding="utf-8"?>
<!-- Generator: Adobe Illustrator 24.0.3, SVG Export Plug-In . SVG Version: 6.00 Build 0)  -->
<svg version="1.1" id="Layer_1" xmlns="http://www.w3.org/2000/svg" xmlns:xlink="http://www.w3.org/1999/xlink" x="0px" y="0px"
	 viewBox="0 0 353.5 200.4" style="enable-background:new 0 0 353.5 200.4;" xml:space="preserve">
<style type="text/css">
	.st0{fill:#EEB927;}
	.st1{fill:#010101;}
</style>
<g>
	<polyline class="st0" points="203.3,2.4 181.1,23.8 197.7,35.6 205.2,28.5 323,119.4 353.5,119.4 203.3,2.4 	"/>
	<polyline class="st1" points="136.6,0 0,118.4 76.1,118.4 76.1,194.6 64.2,200.4 76.1,200.4 81.4,200.4 95.1,200.4 95.1,98.4 
		82.1,98.4 75.9,98.4 51.3,98.4 138.5,27.9 212.5,76.4 243.1,76.4 136.6,0.7 	"/>
	<polygon class="st1" points="161.1,198.4 161.1,116.4 190.1,116.4 190.1,97.4 112.1,97.4 112.1,116.4 142.1,116.4 142.1,198.4 	"/>
	<polygon class="st1" points="205.1,95.9 205.1,198.4 224.1,198.4 224.1,140 287.1,198.4 287.1,197.7 287.1,100.3 268.1,85.6 
		268.1,156.2 	"/>
	<polygon class="st0" points="287.1,30.4 268.1,30.4 268.1,45.1 287.1,60 	"/>
</g>
</svg>
